<svg width="512" height="114" viewBox="0 0 512 114" fill="none" xmlns="http://www.w3.org/2000/svg">
<g clip-path="url(#clip0_701_55)">
<path d="M42.3269 27.89H74.3229L69.3679 46.861C68.6109 49.505 67.1949 51.629 65.1209 53.232C63.0439 54.839 60.6369 55.64 57.9009 55.64H43.0349C39.6369 55.64 36.6389 56.63 34.0449 58.613C31.4469 60.595 29.6319 63.284 28.5939 66.683C27.9329 69.231 27.8619 71.638 28.3819 73.903C28.8999 76.168 29.8199 78.175 31.1419 79.919C32.4629 81.667 34.1619 83.059 36.2399 84.097C38.3139 85.137 40.5799 85.653 43.0349 85.653H52.0949C53.7949 85.653 55.1859 86.339 56.2719 87.706C57.3559 89.076 57.6639 90.608 57.1919 92.307L51.5299 113.261H41.6199C34.8239 113.261 28.5699 111.774 22.8599 108.801C17.1489 105.828 12.4059 101.889 8.63189 96.979C4.85589 92.073 2.28289 86.481 0.915891 80.204C-0.453109 73.927 -0.287109 67.485 1.41189 60.877L1.97789 58.754C3.17441 54.286 5.11232 50.0505 7.71089 46.224C10.3069 42.402 13.3739 39.146 16.9139 36.456C20.4529 33.766 24.3939 31.666 28.7359 30.156C33.0759 28.647 37.6059 27.89 42.3269 27.89ZM58.4659 113.26L86.3559 8.779C87.1099 6.137 88.5259 4.014 90.6039 2.408C92.6779 0.803 95.0839 0 97.8239 0H127.414C134.209 0 140.46 1.487 146.172 4.46C151.881 7.433 156.624 11.375 160.4 16.281C164.174 21.19 166.771 26.782 168.187 33.058C169.603 39.336 169.412 45.778 167.62 52.383L167.055 54.507C165.827 59.037 163.94 63.214 161.392 67.037C158.842 70.859 155.799 74.14 152.26 76.876C148.72 79.614 144.778 81.738 140.438 83.246C136.096 84.758 131.565 85.512 126.847 85.512H101.222L106.318 66.399C107.073 63.851 108.488 61.776 110.566 60.169C112.641 58.566 115.047 57.763 117.786 57.763H125.998C129.395 57.763 132.439 56.725 135.128 54.648C137.819 52.573 139.588 49.883 140.438 46.578C141.098 44.22 141.168 41.906 140.651 39.641C140.131 37.376 139.211 35.371 137.889 33.624C136.567 31.879 134.868 30.464 132.793 29.377C130.716 28.293 128.451 27.749 125.998 27.749H110.14L89.4699 104.625C88.7129 107.173 87.2969 109.25 85.2219 110.854C83.1459 112.46 80.7849 113.261 78.1429 113.261L58.4659 113.26ZM235.009 57.48L235.434 55.922C235.622 55.168 235.505 54.532 235.08 54.012C234.655 53.494 234.065 53.232 233.31 53.232H187.298C185.316 53.232 183.522 52.808 181.918 51.958C180.313 51.108 178.992 50 177.955 48.631C176.915 47.265 176.207 45.683 175.831 43.888C175.452 42.097 175.499 40.256 175.971 38.367L178.803 27.607H241.097C244.967 27.607 248.506 28.457 251.715 30.156C254.923 31.854 257.591 34.073 259.715 36.81C261.839 39.548 263.3 42.685 264.103 46.224C264.904 49.764 264.833 53.423 263.891 57.197L252.706 98.82C251.574 103.068 249.285 106.514 245.84 109.155C242.394 111.799 238.454 113.12 234.018 113.12L188.006 112.978C183.946 112.978 180.219 112.106 176.822 110.358C173.423 108.614 170.639 106.302 168.468 103.422C166.297 100.544 164.788 97.24 163.938 93.512C163.089 89.784 163.184 85.985 164.221 82.114L164.788 79.99C165.445 77.3562 166.571 74.8626 168.114 72.629C169.672 70.363 171.488 68.429 173.565 66.824C175.661 65.2091 178.003 63.9423 180.502 63.072C183.051 62.176 185.742 61.727 188.573 61.727H227.223L224.391 72.346C223.635 74.894 222.219 76.971 220.143 78.575C218.067 80.181 215.707 80.981 213.065 80.981H195.792C194.187 80.981 193.149 81.785 192.678 83.389C192.395 84.429 192.583 85.349 193.244 86.149C193.904 86.952 194.753 87.352 195.792 87.352H223.682C224.721 87.352 225.617 87.069 226.373 86.503C227.127 85.936 227.598 85.183 227.789 84.238L228.072 83.105L235.009 57.48ZM317.407 27.89C324.294 27.89 330.595 29.377 336.306 32.35C342.016 35.323 346.758 39.265 350.536 44.172C354.309 49.08 356.882 54.697 358.25 61.019C359.618 67.344 359.406 73.81 357.614 80.415L350.535 107.032C350.061 108.92 349.048 110.429 347.492 111.562C345.934 112.695 344.21 113.261 342.322 113.261H327.033C325.24 113.261 323.824 112.578 322.786 111.208C321.746 109.841 321.463 108.305 321.936 106.607L330.431 74.469C331.091 72.111 331.161 69.797 330.643 67.532C330.123 65.266 329.203 63.262 327.883 61.515C326.56 59.769 324.862 58.354 322.786 57.267C320.708 56.183 318.443 55.64 315.991 55.64H300.134L286.4 107.032C285.928 108.92 284.914 110.429 283.357 111.562C281.799 112.695 280.029 113.261 278.047 113.261H262.9C261.201 113.261 259.808 112.578 258.724 111.208C257.64 109.841 257.332 108.305 257.803 106.607L278.757 27.89H317.407ZM400.793 54.86C399.661 55.759 398.857 56.914 398.386 58.33L392.016 82.397C391.638 83.72 391.875 84.946 392.723 86.078C393.573 87.211 394.706 87.778 396.122 87.778H454.734L450.204 104.625C449.447 107.173 448.031 109.25 445.956 110.854C443.879 112.46 441.518 113.261 438.877 113.261H385.504C381.632 113.261 378.093 112.436 374.885 110.783C371.675 109.133 369.009 106.915 366.885 104.129C364.762 101.347 363.297 98.183 362.498 94.644C361.696 91.104 361.813 87.494 362.851 83.813L371.487 51.675C372.43 48.185 373.893 44.975 375.876 42.048C377.858 39.124 380.195 36.622 382.884 34.545C385.574 32.469 388.593 30.842 391.944 29.66C395.287 28.4816 398.806 27.883 402.351 27.89H440.151C444.021 27.89 447.561 28.74 450.769 30.439C453.977 32.138 456.646 34.357 458.769 37.093C460.893 39.831 462.33 42.993 463.086 46.578C463.841 50.166 463.746 53.798 462.803 57.48L460.255 67.107C459.123 71.355 456.833 74.777 453.389 77.372C449.942 79.968 446.049 81.265 441.709 81.265H398.953L401.785 70.788C402.444 68.24 403.812 66.165 405.89 64.558C407.965 62.955 410.371 62.152 413.11 62.152H430.383C431.987 62.152 433.023 61.351 433.497 59.745L434.063 57.621C434.347 56.584 434.156 55.639 433.497 54.79C432.835 53.94 431.987 53.516 430.949 53.516H404.616C403.201 53.516 401.926 53.964 400.793 54.86ZM454.59 113.26L483.046 6.37C483.517 4.484 484.533 2.95 486.091 1.77C487.647 0.59 489.417 0 491.4 0H506.548C508.34 0 509.779 0.686 510.866 2.053C511.95 3.423 512.257 4.955 511.786 6.654L490.55 85.512C489.51 89.667 487.835 93.44 485.524 96.838C483.21 100.236 480.474 103.138 477.312 105.545C474.149 107.952 470.634 109.841 466.765 111.208C462.894 112.578 458.837 113.26 454.59 113.26Z" fill="#FF6C2C"/>
</g>
<defs>
<clipPath id="clip0_701_55">
<rect width="512" height="114" fill="white"/>
</clipPath>
</defs>
</svg>
