<svg width="74" height="100" viewBox="0 0 74 100" fill="none" xmlns="http://www.w3.org/2000/svg">
<path d="M36.9547 99.7474L6.83958 91.7357L0.128418 19.6028H73.8711L67.153 91.7247L36.9547 99.7474V99.7474Z" fill="#264DE4"/>
<path d="M61.4018 87.1321L67.1426 25.5005H37V93.615L61.4018 87.1321V87.1321Z" fill="#2965F1"/>
<path d="M15.5138 52.2537L16.3411 61.1006H37.0001V52.2537H15.5138ZM13.8511 34.3477L14.6902 43.1945H37.0001V34.3477H13.8511V34.3477ZM37.0001 75.2299L36.9596 75.2402L26.6782 72.5798L26.0209 65.5241H16.7536L18.0468 79.415L36.9576 84.4454L37.0001 84.4344V75.2299Z" fill="#EBEBEB"/>
<path d="M17.4839 0H28.6648V4.48089H22.1598V8.96177H28.6654V13.4424H17.4839V0ZM30.9013 0H42.0825V3.8964H35.5772V4.67562H42.0825V13.6374H30.9016V9.54571H37.4069V8.76648H30.901V0H30.9013ZM44.319 0H55.5002V3.8964H48.9949V4.67562H55.5002V13.6374H44.319V9.54571H50.8244V8.76648H44.3193V0H44.319Z" fill="black"/>
<path d="M58.4272 52.2537L60.0936 34.3477H36.9681V43.1945H49.9765L49.1364 52.2537H36.9681V61.1006H48.336L47.2642 72.5743L36.9678 75.2374V84.4413L55.8936 79.415L56.0323 77.9202L58.202 54.6294L58.4272 52.2537V52.2537Z" fill="white"/>
</svg>
