<svg width="100" height="100" viewBox="0 0 100 100" fill="none" xmlns="http://www.w3.org/2000/svg">
<path d="M98.1142 45.5453L54.4532 1.88587C51.9403 -0.628625 47.8622 -0.628625 45.3462 1.88587L36.2798 10.9524L47.781 22.4538C50.4536 21.5507 53.5185 22.1566 55.6489 24.2871C57.7896 26.4313 58.3911 29.5223 57.4661 32.2036L68.5501 43.2882C71.2318 42.3644 74.3259 42.962 76.4677 45.1074C79.4611 48.0996 79.4611 52.9493 76.4677 55.9435C73.4736 58.9381 68.624 58.9381 65.6282 55.9435C63.3767 53.6896 62.8204 50.3829 63.9603 47.609L53.6235 37.2721L53.6224 64.4745C54.3717 64.845 55.0561 65.3345 55.6489 65.9238C58.6423 68.916 58.6423 73.7661 55.6489 76.7627C52.6548 79.7557 47.8028 79.7557 44.813 76.7627C41.8196 73.7661 41.8196 68.9164 44.813 65.9242C45.5303 65.2065 46.3828 64.6381 47.3212 64.2519V36.7959C46.3815 36.4123 45.5285 35.8436 44.813 35.1236C42.545 32.8587 41.9997 29.5309 43.1618 26.7461L31.8243 15.4072L1.88672 45.3433C-0.628908 47.8602 -0.628908 51.9388 1.88672 54.4536L45.5485 98.1138C48.0622 100.629 52.1396 100.629 54.6564 98.1138L98.1139 54.6564C100.629 52.1407 100.629 48.0598 98.1139 45.5453" fill="#DE4C36"/>
</svg>
