<svg width="74" height="100" viewBox="0 0 74 100" fill="none" xmlns="http://www.w3.org/2000/svg">
<path d="M73.8712 19.6028L67.1531 91.7247L36.9547 99.7474L6.83958 91.7357L0.128418 19.6028H73.8712Z" fill="#E44D26"/>
<path d="M37 93.615L61.4018 87.1321L67.1426 25.5005H37V93.615Z" fill="#F16529"/>
<path d="M23.9402 43.1945H37.0001V34.3477H13.8511L14.0719 36.7211L16.3411 61.1006H37.0001V52.2537H24.784L23.9402 43.1945V43.1945ZM26.0209 65.5241H16.7536L18.0468 79.415L36.9576 84.4454L37.0001 84.4344V75.2299L36.9596 75.2402L26.6782 72.5798L26.0209 65.5241Z" fill="#EBEBEB"/>
<path d="M6.98975 0H11.6812V4.44183H15.9729V0H20.6647V13.451H15.9732V8.94681H11.6815V13.451H6.99003V0H6.98975ZM26.8339 4.46066H22.7043V0H35.6584V4.46066H31.5262V13.451H26.8347V4.46066H26.8345H26.8339ZM37.7142 0H42.606L45.6151 4.72632L48.6214 0H53.5152V13.451H48.8428V6.78393L45.6151 11.5665H45.5342L42.3045 6.78393V13.451H37.7142V0ZM55.85 0H60.5429V9.00499H67.1404V13.451H55.8497V0H55.85Z" fill="black"/>
<path d="M36.9681 61.1006H48.336L47.2642 72.5743L36.9678 75.2374V84.4413L55.8936 79.415L56.0323 77.9202L58.202 54.6294L58.4272 52.2537H36.9681V61.1006ZM36.9681 43.1729V43.1945H59.2672L59.4522 41.2061L59.8731 36.7211L60.0936 34.3477H36.9681V43.1731V43.1729Z" fill="white"/>
</svg>
