<svg width="100" height="100" viewBox="0 0 100 100" fill="none" xmlns="http://www.w3.org/2000/svg">
<path d="M0 0H100V100H0V0Z" fill="#F7DF1E"/>
<path d="M26.2938 83.5672L33.9462 78.9359C35.4228 81.5535 36.7657 83.7683 39.9872 83.7683C43.0751 83.7683 45.0224 82.5605 45.0224 77.8621V45.9098H54.4196V77.9949C54.4196 87.7281 48.7142 92.1586 40.3899 92.1586C32.8724 92.1586 28.5087 88.2652 26.2935 83.5664L26.2938 83.5672ZM59.5239 82.5601L67.1755 78.1301C69.1899 81.4195 71.8079 83.8359 76.4392 83.8359C80.3333 83.8359 82.8161 81.889 82.8161 79.2039C82.8161 75.982 80.2653 74.8406 75.9692 72.9617L73.6204 71.9539C66.8403 69.0683 62.3431 65.4433 62.3431 57.791C62.3431 50.7426 67.713 45.3723 76.104 45.3723C82.0782 45.3723 86.3743 47.4535 89.4618 52.8906L82.1446 57.5898C80.5333 54.7035 78.7888 53.5625 76.1036 53.5625C73.3513 53.5625 71.606 55.3078 71.606 57.5898C71.606 60.409 73.3513 61.5508 77.3786 63.2961L79.7278 64.3027C87.7161 67.7266 92.2134 71.2168 92.2134 79.0699C92.2134 87.5285 85.5681 92.1598 76.6403 92.1598C67.9142 92.1598 62.2755 87.998 59.5235 82.5605" fill="black"/>
</svg>
