<svg width="512" height="314" viewBox="0 0 512 314" fill="none" xmlns="http://www.w3.org/2000/svg">
<g clip-path="url(#clip0_701_14)">
<path d="M253.11 313.094C251.377 313.094 249.759 312.632 248.256 311.823L232.885 302.693C230.573 301.421 231.729 300.959 232.423 300.728C235.543 299.688 236.121 299.456 239.357 297.608C239.704 297.376 240.167 297.492 240.513 297.723L252.302 304.773C252.764 305.004 253.342 305.004 253.688 304.773L299.803 278.075C300.265 277.844 300.497 277.381 300.497 276.804V223.524C300.497 222.945 300.265 222.484 299.803 222.252L253.688 195.67C253.226 195.438 252.648 195.438 252.302 195.67L206.187 222.252C205.725 222.483 205.493 223.061 205.493 223.523V276.803C205.493 277.266 205.725 277.843 206.187 278.075L218.785 285.356C225.604 288.823 229.88 284.778 229.88 280.733V228.146C229.88 227.453 230.458 226.759 231.267 226.759H237.161C237.855 226.759 238.548 227.337 238.548 228.146V280.733C238.548 289.863 233.578 295.18 224.91 295.18C222.252 295.18 220.172 295.18 214.277 292.29L202.142 285.356C199.137 283.623 197.288 280.386 197.288 276.919V223.639C197.288 220.172 199.137 216.935 202.142 215.202L248.256 188.504C251.146 186.886 255.076 186.886 257.965 188.504L304.079 215.202C307.084 216.935 308.934 220.172 308.934 223.639V276.919C308.934 280.386 307.084 283.623 304.079 285.356L257.965 312.054C256.462 312.748 254.728 313.094 253.11 313.094ZM267.326 276.457C247.101 276.457 242.94 267.211 242.94 259.352C242.94 258.658 243.518 257.965 244.327 257.965H250.337C251.03 257.965 251.608 258.427 251.608 259.121C252.533 265.246 255.191 268.251 267.442 268.251C277.15 268.251 281.312 266.055 281.312 260.854C281.312 257.849 280.155 255.654 265.015 254.151C252.417 252.879 244.558 250.106 244.558 240.051C244.558 230.689 252.418 225.141 265.593 225.141C280.386 225.141 287.668 230.227 288.593 241.321C288.593 241.669 288.477 242.015 288.246 242.362C288.014 242.593 287.668 242.824 287.321 242.824H281.311C280.733 242.824 280.155 242.362 280.04 241.784C278.653 235.428 275.07 233.347 265.593 233.347C254.96 233.347 253.688 237.046 253.688 239.819C253.688 243.171 255.191 244.211 269.522 246.06C283.738 247.91 290.442 250.568 290.442 260.507C290.326 270.678 282.005 276.457 267.326 276.457Z" fill="#539E43"/>
<path d="M110.028 104.712C110.028 102.632 108.872 100.666 107.023 99.626L58.0194 71.426C57.2094 70.963 56.2854 70.732 55.3614 70.616H54.8984C53.9744 70.616 53.0494 70.963 52.2404 71.426L3.23645 99.626C1.38645 100.666 0.231445 102.631 0.231445 104.712L0.347445 180.529C0.347445 181.569 0.925445 182.609 1.84945 183.072C2.77445 183.65 3.92945 183.65 4.73945 183.072L33.8644 166.429C35.7134 165.389 36.8694 163.424 36.8694 161.344V125.862C36.8694 123.782 38.0244 121.817 39.8744 120.777L52.2404 113.611C53.1654 113.033 54.2054 112.801 55.2454 112.801C56.2854 112.801 57.3254 113.033 58.1354 113.611L70.5014 120.777C72.3514 121.817 73.5064 123.781 73.5064 125.862V161.344C73.5064 163.424 74.6624 165.389 76.5114 166.429L105.636 183.072C106.086 183.355 106.607 183.506 107.139 183.506C107.671 183.506 108.191 183.355 108.641 183.072C109.566 182.609 110.144 181.569 110.144 180.529L110.028 104.712ZM345.571 0.347006C344.647 -0.115994 343.491 -0.115994 342.681 0.347006C341.757 0.925006 341.179 1.84901 341.179 2.88901V78.014C341.179 78.707 340.833 79.4 340.139 79.863C339.446 80.209 338.752 80.209 338.059 79.863L325.808 72.813C324.91 72.3016 323.895 72.0327 322.861 72.0327C321.827 72.0327 320.812 72.3016 319.913 72.813L270.909 101.129C269.06 102.169 267.904 104.134 267.904 106.214V162.73C267.904 164.81 269.06 166.776 270.909 167.816L319.913 196.132C320.812 196.643 321.827 196.912 322.861 196.912C323.895 196.912 324.91 196.643 325.808 196.132L374.812 167.816C376.661 166.776 377.817 164.811 377.817 162.73V21.844C377.817 19.648 376.661 17.684 374.812 16.643L345.571 0.347006ZM341.064 144.123C341.064 144.701 340.833 145.163 340.37 145.394L323.612 155.102C323.378 155.216 323.121 155.276 322.861 155.276C322.601 155.276 322.344 155.216 322.109 155.102L305.351 145.394C304.888 145.163 304.657 144.585 304.657 144.123V124.706C304.657 124.128 304.888 123.666 305.351 123.435L322.109 113.726C322.344 113.612 322.601 113.552 322.861 113.552C323.121 113.552 323.378 113.612 323.612 113.726L340.37 123.435C340.833 123.665 341.064 124.244 341.064 124.706V144.123ZM508.648 124.244C510.498 123.204 511.538 121.239 511.538 119.158V105.405C511.538 103.325 510.382 101.36 508.648 100.32L459.991 72.12C459.093 71.6086 458.078 71.3397 457.044 71.3397C456.01 71.3397 454.995 71.6086 454.096 72.12L405.092 100.435C403.242 101.475 402.087 103.44 402.087 105.52V162.037C402.087 164.117 403.243 166.082 405.092 167.122L453.749 194.86C455.599 195.9 457.795 195.9 459.529 194.86L489 178.45C489.925 177.987 490.503 176.947 490.503 175.907C490.503 174.867 489.925 173.827 489 173.364L439.765 145.048C438.84 144.47 438.262 143.546 438.262 142.506V124.823C438.262 123.783 438.84 122.743 439.765 122.28L455.136 113.496C455.586 113.213 456.107 113.063 456.639 113.063C457.171 113.063 457.691 113.213 458.141 113.496L473.513 122.28C474.438 122.858 475.015 123.782 475.015 124.823V138.692C475.015 139.732 475.593 140.772 476.518 141.234C476.968 141.517 477.489 141.668 478.021 141.668C478.553 141.668 479.074 141.517 479.523 141.234L508.648 124.244Z" fill="#333333"/>
<path d="M456.293 121.585C456.464 121.472 456.665 121.412 456.871 121.412C457.076 121.412 457.277 121.472 457.449 121.585L466.811 127.017C467.157 127.249 467.388 127.595 467.388 128.057V138.922C467.388 139.384 467.158 139.731 466.811 139.962L457.449 145.394C457.277 145.507 457.076 145.567 456.871 145.567C456.665 145.567 456.464 145.507 456.293 145.394L446.932 139.962C446.585 139.731 446.354 139.384 446.354 138.922V128.058C446.354 127.595 446.584 127.248 446.932 127.018L456.293 121.585Z" fill="#539E43"/>
<path d="M191.971 72.351C191.073 71.8397 190.058 71.5709 189.024 71.5709C187.991 71.5709 186.975 71.8397 186.077 72.351L137.42 100.434C135.57 101.474 134.53 103.439 134.53 105.519V161.805C134.53 163.885 135.686 165.85 137.42 166.89L186.077 194.975C186.975 195.486 187.991 195.755 189.024 195.755C190.058 195.755 191.073 195.486 191.971 194.975L240.629 166.89C242.478 165.85 243.519 163.885 243.519 161.805V105.52C243.519 103.44 242.362 101.475 240.629 100.435L191.971 72.351Z" fill="url(#paint0_linear_701_14)"/>
</g>
<defs>
<linearGradient id="paint0_linear_701_14" x1="7566.27" y1="2243.18" x2="2232.99" y2="10623.3" gradientUnits="userSpaceOnUse">
<stop stop-color="#41873F"/>
<stop offset="0.3288" stop-color="#418B3D"/>
<stop offset="0.6352" stop-color="#419637"/>
<stop offset="0.9319" stop-color="#3FA92D"/>
<stop offset="1" stop-color="#3FAE2A"/>
</linearGradient>
<clipPath id="clip0_701_14">
<rect width="512" height="314" fill="white"/>
</clipPath>
</defs>
</svg>
