<svg width="114" height="100" viewBox="0 0 114 100" fill="none" xmlns="http://www.w3.org/2000/svg">
<g clip-path="url(#clip0_512_21)">
<path d="M62.5732 99.1362L93.8596 76.1166C93.9753 76.0337 94.1267 76.0699 94.198 76.2046C94.2692 76.3394 94.2381 76.5155 94.1223 76.5984L62.7336 99.6906C62.6935 99.7217 62.6489 99.7373 62.6044 99.7373L62.5732 99.1362V99.1362Z" fill="url(#paint0_linear_512_21)"/>
<path d="M62.6042 99.7373C62.5775 99.7373 62.5464 99.7321 62.5196 99.7217L19.8645 81.2248C19.8341 81.212 19.8062 81.1922 19.7825 81.1667C19.7588 81.1411 19.7397 81.1102 19.7264 81.0759C19.7131 81.0416 19.7059 81.0046 19.7051 80.967C19.7044 80.9294 19.7101 80.8919 19.722 80.857C19.771 80.7067 19.909 80.6342 20.0382 80.6912L62.582 99.1362L62.6042 99.7373V99.7373Z" fill="url(#paint1_linear_512_21)"/>
<path d="M107.365 11.3005L102.44 20.787L82.656 30.5746L81.5561 31.1186L63.7752 50.4647C63.4323 50.8637 63.2007 51.4336 63.1607 51.7497C63.1429 51.8585 63.0627 51.8119 62.987 51.8067C62.9068 51.8015 62.7955 51.8378 62.7866 51.7238C62.7777 51.3093 62.7376 50.8482 62.1632 50.4336L53.2529 43.7186L46.7558 38.8171L28.4548 33.3564L13.1361 28.7865L3.43359 11.2487L3.58055 11.0518L3.58945 11.0362L40.0147 0.0206949C40.0681 -3.04857e-05 40.077 0.0103322 40.0993 0.0466016L52.5226 21.6989L52.7675 22.1238C53.0347 22.5798 53.0614 22.8596 53.0614 23.0616H53.2885V23.015C53.2885 22.9943 53.2885 22.9684 53.293 22.9425C53.293 22.9269 53.2974 22.9114 53.2974 22.8906C53.3019 22.8699 53.3019 22.8492 53.3064 22.8285C53.3108 22.8077 53.3108 22.787 53.3153 22.7611C53.3286 22.6886 53.3464 22.6057 53.3642 22.5228C53.3687 22.4969 53.3776 22.471 53.3821 22.4502C53.4043 22.3673 53.4266 22.2792 53.4533 22.1963C53.4667 22.1653 53.4756 22.129 53.4889 22.0979C53.5246 21.9943 53.5602 21.901 53.6003 21.8181C53.6359 21.7352 53.6715 21.6678 53.7071 21.6108L64.9067 2.658C64.9335 2.61137 64.9468 2.59064 65.0047 2.60101L107.294 11.0673L107.365 11.3005H107.365Z" fill="#E8B67F"/>
<path d="M53.2527 43.7134H53.2483L46.756 38.8176L28.4546 33.3565L53.0612 23.0616L53.128 22.9114V23.0616L53.2527 43.7134Z" fill="url(#paint2_linear_512_21)"/>
<path d="M53.0615 23.0617L28.4548 33.3513L26.2372 32.6881L13.1361 28.7762L3.43359 11.2384L3.58945 11.0259L40.0147 0.01038C40.0681 -0.0103454 40.077 1.72688e-05 40.0993 0.0362867L52.5226 21.6886L52.7676 22.1135C53.0347 22.5798 53.0615 22.8596 53.0615 23.0617V23.0617Z" fill="url(#paint3_linear_512_21)"/>
<path d="M53.1479 24.1549L29.8812 33.885L26.252 32.8021L52.5379 21.8073L52.7828 22.2321C53.05 22.6881 53.0767 22.9679 53.0767 23.1699H53.1435L53.1479 24.1544V24.1549Z" fill="url(#paint4_linear_512_21)"/>
<path d="M13.4704 28.8798L13.1409 28.7813L3.43799 11.2435L3.58494 11.0466L13.4704 28.8798Z" fill="#D2A679"/>
<path d="M82.6556 30.5741L81.5557 31.1181L63.7748 50.4648C63.432 50.8637 63.2004 51.4337 63.1603 51.7497C63.1425 51.8585 63.0623 51.8119 62.9866 51.8067C62.9065 51.8015 62.7952 51.8378 62.7863 51.7238C62.7773 51.3093 62.7373 50.8482 62.1628 50.4337L53.2526 43.7135L53.1323 23.0668V22.9166L53.2971 23.0668L82.6556 30.5746V30.5741Z" fill="url(#paint5_linear_512_21)"/>
<path d="M107.365 11.3005L102.44 20.7871L84.4327 29.6938L82.6604 30.5695L53.2929 23.0617C53.2751 22.7974 53.4309 22.1964 53.6002 21.813C53.6358 21.7301 53.6714 21.6627 53.707 21.6057L64.9066 2.65287C64.9334 2.60624 64.9467 2.58551 65.0046 2.59588L107.294 11.0622L107.365 11.3005H107.365Z" fill="url(#paint6_linear_512_21)"/>
<path d="M84.4325 29.6933L81.5602 31.1129L81.1906 31.5275L53.1279 24.3098L53.2571 23.056H53.2927C53.2749 22.7917 53.4307 22.1907 53.6 21.8073L84.4325 29.6933V29.6933Z" fill="url(#paint7_linear_512_21)"/>
<path opacity="0.75" d="M53.9072 23.2171V44.2057L53.2526 43.7135H53.2481L52.3887 43.0606V23.3414L53.0611 23.0616H53.2882L53.9072 23.2171Z" fill="url(#paint8_linear_512_21)"/>
<path d="M62.4306 99.4005L19.7398 80.8673C19.4993 80.7482 19.4637 80.4839 19.4504 80.1575C19.4504 80.1575 17.6157 37.828 17.6112 37.8228C17.6068 37.714 17.7226 37.6466 17.7136 37.5793C17.6825 37.4186 17.4197 36.8124 17.3351 36.7502L0 25.2891L0.146953 24.9005L46.756 38.8176L62.159 50.4285C62.7334 50.843 62.7779 51.3041 62.7824 51.7186C62.7869 51.8326 62.9026 51.7963 62.9828 51.8015C63.0629 51.8067 63.1386 51.8533 63.1565 51.7445C63.1965 51.4285 63.4281 50.8585 63.771 50.4647L81.5514 31.1181L113.795 15.171L113.991 15.487L96.5847 33.2844C96.2463 33.6782 96.0905 34.1601 96.1572 34.357L94.376 75.8425C94.3493 76.1067 94.2424 76.1844 94.0153 76.3658L62.8091 99.3492C62.6844 99.4425 62.5508 99.4684 62.4306 99.401V99.4005Z" fill="#BF9064"/>
<path d="M62.9825 51.8015L62.6753 99.4212C62.5926 99.4482 62.5044 99.4409 62.4259 99.4005L19.7355 80.8725C19.4951 80.7533 19.4594 80.4839 19.4461 80.1627L17.6069 37.828V37.8176C17.6069 37.8072 17.6069 37.7969 17.6114 37.7865C17.6114 37.7761 17.6158 37.771 17.6203 37.7658C17.6247 37.7554 17.6292 37.7502 17.6337 37.7399C17.6381 37.7295 17.6426 37.7243 17.647 37.714C17.6648 37.6829 17.6915 37.6518 17.7005 37.6259C17.7049 37.6207 17.7049 37.6155 17.7049 37.6103V37.6052L62.787 51.7394C62.8048 51.8326 62.9117 51.7964 62.983 51.8015H62.9825Z" fill="#BD8F63"/>
<path opacity="0.54" d="M62.68 99.2813V99.4161C62.5973 99.4431 62.5092 99.4357 62.4306 99.3953L19.7398 80.8674C19.5706 80.7845 19.5038 80.6238 19.4727 80.4269L62.68 99.2813V99.2813Z" fill="url(#paint9_linear_512_21)"/>
<path d="M43.376 70.3964L59.9055 76.6865L59.8655 95.442L43.6432 88.5093L43.376 70.3964ZM51.6588 82.9974L51.6989 91.686L59.7047 95.1078V86.2508L51.6583 82.9969L51.6588 82.9974ZM54.0238 85.8041L55.6417 88.8L57.2265 87.1844L57.5026 87.5508L55.867 89.2176L57.5062 92.2528L57.2688 92.4264L55.6532 89.4352L54.0764 91.0435L53.8003 90.6772L55.4279 89.0176L53.7865 85.9777L54.0238 85.8041V85.8041ZM58.7878 89.1782V90.0332L59.2108 90.1938V91.1575L58.7878 90.9606V91.7378L57.8615 90.1005L58.7878 89.1782V89.1782ZM57.3628 88.1368L57.6879 88.2559V91.6705L57.3628 91.5357V88.1368ZM43.7011 79.7793L43.8213 88.3337L51.4718 91.5876L51.4272 82.9192L43.7011 79.7793ZM55.6621 89.9762L56.4993 91.5461L54.8294 90.8414L55.6621 89.9762ZM56.9531 88.5357V90.7637L56.0847 89.3388L56.9531 88.5357ZM53.64 86.5513L53.9606 86.6756V90.085L53.64 89.9554V86.5513V86.5513ZM54.3614 87.4684L55.1897 88.9554L54.3614 89.6964V87.4684ZM47.4412 83.3388L47.7574 83.458L47.7583 83.6767C48.6997 84.1171 49.6295 85.2155 50.0779 86.9243C49.784 86.3492 49.5257 86.2404 49.0671 86.4218C48.8979 86.0124 48.3991 85.7948 48.1007 86.0124C48.0251 85.8444 47.9099 85.7049 47.7685 85.6103L47.7846 88.8622C47.7846 89.1627 47.6064 89.4321 47.1656 89.3285C46.7648 89.2145 46.6 88.857 46.6446 88.2456L46.8672 88.287C46.8672 88.6964 46.8939 88.9295 47.1611 89.0021C47.3882 89.0642 47.4907 88.9658 47.4907 88.7223L47.4613 85.4969C47.3348 85.4865 47.2177 85.5228 47.1344 85.6083C47.032 85.3078 46.5466 84.9036 46.1814 85.2041C45.9232 84.7274 45.4378 84.5461 45.1661 84.8932C45.513 83.673 46.4549 83.2456 47.443 83.5539L47.4417 83.3388H47.4412ZM52.5089 86.515L53.4129 88.173L52.5178 89.0383L52.5356 88.2249L52.0992 88.1057V87.1627L52.5089 87.3388V86.515ZM54.8023 86.8725L56.4944 87.5876L55.6483 88.4528L54.8023 86.8725V86.8725ZM51.645 73.8155L51.6628 82.6756L59.7096 85.9399V76.8881L51.645 73.8155V73.8155ZM53.1457 81.4684L57.9551 83.3803V84.4943L53.1457 82.5668V81.4684V81.4684ZM48.9874 83.5767L49.0047 83.5824C49.0359 83.6186 49.0359 84.0072 48.9335 84.0953C48.9032 84.1112 48.8698 84.1172 48.8369 84.1126C48.8039 84.108 48.7727 84.0931 48.7464 84.0694C48.6841 84.0124 48.6485 83.9295 48.6752 83.8052C48.7019 83.6808 48.9691 83.5461 49.0047 83.5824L48.9874 83.5767ZM49.4327 82.6907L49.45 82.6964C49.4857 82.7326 49.4857 83.1212 49.3788 83.2093C49.3485 83.2252 49.3151 83.2311 49.2822 83.2266C49.2492 83.222 49.218 83.2071 49.1918 83.1834C49.1294 83.1264 49.0938 83.0435 49.1205 82.9192C49.1472 82.7948 49.4144 82.6601 49.45 82.6964L49.4327 82.6907ZM48.1858 82.6544L48.2032 82.6601C48.2388 82.6964 48.2388 83.085 48.1319 83.173C48.1017 83.1889 48.0683 83.1949 48.0353 83.1903C48.0024 83.1858 47.9711 83.1708 47.9449 83.1471C47.8825 83.0901 47.8469 83.0072 47.8736 82.8829C47.9004 82.7585 48.1675 82.6238 48.2032 82.6601L48.1858 82.6544ZM46.9256 82.442L46.9429 82.4477C46.9786 82.4839 46.9786 82.8725 46.8717 82.9606C46.8414 82.9765 46.808 82.9824 46.7751 82.9779C46.7421 82.9733 46.7109 82.9584 46.6846 82.9347C46.6223 82.8777 46.5867 82.7948 46.6134 82.6705C46.6401 82.5461 46.9073 82.4114 46.9429 82.4477L46.9256 82.442ZM56.8596 76.6243L58.0263 79.3031L57.2292 78.987V82.8679L56.4321 82.5466L56.4365 78.6969L55.6439 78.3964L56.8596 76.6243V76.6243ZM43.5496 70.728L43.6877 79.4689L51.4317 82.5673L51.3649 73.7124L43.5496 70.728ZM54.2282 75.6036L55.395 78.2824L54.5979 77.9663V81.8471L53.8007 81.5259L53.8096 77.6761L53.0125 77.3756L54.2282 75.6036V75.6036ZM45.2819 72.4844L45.9143 72.728L46.2082 73.9663L45.8786 73.9404L46.8182 76.5829L46.3329 74.4067L46.6089 74.4015L46.3284 72.8834L49.5925 74.1373V76.2254C49.5925 77.0181 48.8533 78.0181 47.8113 77.5207L47.8157 79.6192L49.312 80.7383L45.6916 79.2772L47.1478 79.3601L47.1211 77.2824C46.0879 76.9249 45.3398 75.4793 45.3398 74.5984L45.2819 72.4844V72.4844Z" fill="#322214"/>
<path d="M62.9823 51.8015C62.8042 51.8067 62.6706 52.0813 62.6661 52.33L62.6261 52.3508L17.6068 37.8223C17.6023 37.7238 17.7003 37.6617 17.7092 37.5995C17.7136 37.5943 17.7136 37.5891 17.7092 37.5839C17.678 37.4233 17.4153 36.8171 17.3307 36.7549L0 25.2902L0.146953 24.9016L46.7516 38.8129H46.756L62.1589 50.4238C62.7334 50.8435 62.7779 51.2995 62.7824 51.714C62.7824 51.7192 62.7824 51.7295 62.7868 51.7347C62.8046 51.8332 62.9115 51.7969 62.9828 51.8021L62.9823 51.8015Z" fill="url(#paint10_linear_512_21)"/>
<path d="M96.5893 33.2788C96.2509 33.6726 96.0951 34.1544 96.1618 34.3513L63.3744 52.4026L63.3076 52.3404C63.3031 52.0399 63.1384 51.8379 63.0137 51.8068C63.0805 51.8171 63.1428 51.843 63.1606 51.7446C63.1695 51.6824 63.1829 51.6099 63.2052 51.5322C63.223 51.4648 63.2497 51.3923 63.2809 51.3145C63.3744 51.0658 63.5169 50.7964 63.6995 50.5581C63.7262 50.527 63.7529 50.4907 63.7796 50.4596L81.5605 31.113L113.804 15.1658L114 15.4819L96.5893 33.2793V33.2788Z" fill="#CD9C6B"/>
<path d="M42.7481 56.5472C42.7971 56.5627 42.8149 56.5679 42.8149 56.5212L42.6457 45.9829C42.6323 45.6254 42.5566 44.9207 42.187 44.6358L25.7692 33.0301L18.0742 30.7192L34.7596 42.3202C35.1782 42.6415 35.2139 43.2425 35.2317 43.6881L35.4721 53.9358C35.4721 53.9876 35.481 53.9979 35.5122 54.0135L42.7485 56.5472H42.7481Z" fill="url(#paint11_linear_512_21)"/>
<path d="M62.9823 51.8015C62.7997 51.8067 62.6661 52.0969 62.6661 52.3508C62.6616 52.3715 62.6305 52.3663 62.626 52.3508C62.5904 51.786 62.39 51.1539 62.1273 50.9311L46.6001 39.2834L46.7515 38.8119H46.756L62.1589 50.4233C62.7333 50.843 62.7779 51.2989 62.7823 51.7134C62.7823 51.7186 62.7823 51.729 62.7868 51.7342C62.8046 51.8326 62.9115 51.7963 62.9827 51.8015H62.9823Z" fill="#D4A271"/>
<path d="M46.7516 38.8176L46.6002 39.2839L0 25.2896L0.146953 24.9062L46.7516 38.8176Z" fill="#DEB37E"/>
<path d="M96.1663 34.3513L94.3851 75.8368C94.3584 76.101 94.2515 76.1787 94.0244 76.3601L62.8182 99.3435C62.7737 99.3798 62.7247 99.4005 62.6802 99.4161L62.9874 51.7964C63.0676 51.8015 63.1433 51.8482 63.1611 51.7394C63.1611 51.7238 63.1656 51.7135 63.1656 51.6979L96.1574 34.3041C96.1574 34.33 96.1619 34.3404 96.1663 34.3508V34.3513Z" fill="#DBAD77"/>
<path opacity="0.54" d="M94.3851 75.8212V75.8419C94.3584 76.1062 94.2515 76.1839 94.0244 76.3653L62.8182 99.3487C62.7737 99.385 62.7247 99.4057 62.6802 99.4212V99.2865L94.3851 75.8212V75.8212Z" fill="url(#paint12_linear_512_21)"/>
<path d="M93.8017 57.77L93.0892 74.6606L82.7134 82.1788L83.2478 64.5985L93.8017 57.77V57.77ZM88.2531 69.9979L83.0963 73.5259L82.8514 81.842L87.9859 78.127L88.2531 69.9974V69.9979ZM85.7905 73.5674L85.7816 73.8472C86.3974 73.4896 86.9795 73.7383 87.2244 74.9249C87.0552 74.6503 86.7479 74.7591 86.5431 75.3187C86.4495 75.0855 85.9731 75.2772 85.9018 75.7643C85.864 75.685 85.7958 75.656 85.7175 75.6663L85.6039 78.8731C85.595 79.1477 85.5816 79.443 85.2833 79.6554C85.1452 79.728 84.7801 79.785 84.8291 79.1891L85.0027 79.0337C84.9894 79.4119 85.074 79.5259 85.2521 79.4016C85.4658 79.2513 85.4258 79.013 85.4347 78.7902L85.5304 75.7518C85.4615 75.8045 85.4022 75.8726 85.3559 75.9521C85.3097 76.0316 85.2774 76.121 85.261 76.215C85.2076 76.0285 84.691 76.1425 84.6287 76.6762C84.4817 76.4482 84.0809 76.671 83.9295 77.2461C84.2083 75.7523 84.8994 74.5124 85.5874 73.9788L85.595 73.7332L85.7909 73.5674H85.7905ZM93.3163 66.5156L88.4 69.899L88.1284 78.0492L92.9912 74.4896L93.3163 66.5156V66.5156ZM91.7977 69.2617L91.9403 69.4171L90.8688 72.2451L91.7532 73.6658L91.6107 74.0181L90.729 72.614L89.6692 75.4119L89.5222 75.2565L90.6016 72.4114L89.687 70.956L89.8473 70.6036L90.7424 72.0415L91.7977 69.2617ZM88.8052 72.5104L89.3619 73.2979L88.7696 74.7798V74.127L88.5202 74.3031L88.5336 73.4586L88.783 73.2876L88.8052 72.5104V72.5104ZM89.7671 71.4845L89.6513 74.6088L89.4509 74.7643L89.5623 71.6503L89.7671 71.4845V71.4845ZM90.7067 73.1166L91.1832 73.8472L90.159 74.5725L90.7067 73.1166V73.1166ZM85.2517 73.3446C85.2739 73.3446 85.2606 73.7021 85.1849 73.8783C85.1581 73.9404 85.1092 74.0078 85.0691 74.013C85.029 74.0181 85.0112 73.9663 85.0335 73.8316C85.0557 73.6969 85.2294 73.3446 85.2517 73.3446ZM89.9898 71.9093L90.4618 72.5881L89.9096 73.8575L89.9898 71.9093ZM86.6054 72.6969C86.6232 72.7021 86.6099 73.0596 86.5386 73.2306C86.5119 73.2928 86.4629 73.3601 86.4228 73.3653C86.3828 73.3705 86.3649 73.3187 86.3872 73.1839C86.4095 73.0492 86.5831 72.6969 86.6054 72.6969ZM88.5826 61.3808L83.3724 64.7798L83.1008 73.2617L88.2709 69.7176L88.5826 61.3808V61.3808ZM92.016 69.8938L91.8913 73.013L91.7131 73.1477L91.8334 70.0337L92.016 69.8938ZM86.1156 72.4637C86.1378 72.4637 86.1245 72.8212 86.0488 72.9974C86.022 73.0596 85.9731 73.127 85.933 73.1321C85.8929 73.1373 85.8751 73.0855 85.8974 72.9508C85.9196 72.8161 86.0933 72.4637 86.1156 72.4637ZM91.5573 70.8005L91.486 72.7902L91.0229 72.1477L91.5573 70.8005ZM92.6617 69.8523L92.6349 70.6192L92.8932 70.4534L92.862 71.3031L92.6127 71.4741L92.6038 72.1736L92.0649 71.4223L92.6617 69.8523ZM86.9483 71.4378C86.9706 71.4378 86.9572 71.7953 86.8815 71.9715C86.8548 72.0337 86.8058 72.101 86.7657 72.1062C86.7256 72.1114 86.7078 72.0596 86.7301 71.9249C86.7524 71.7902 86.926 71.4378 86.9483 71.4378ZM91.3035 70.2358L90.7513 71.7073L90.2748 70.956L91.3035 70.2358V70.2358ZM87.3713 63.1839L87.3045 65.3187C87.2778 66.0441 86.7791 67.3601 86.0354 67.9093L85.9553 69.9249L86.9483 69.6762L84.5303 71.3031L85.5367 70.1891L85.5901 68.2099C84.9444 68.6399 84.4278 67.842 84.459 67.0337L84.5169 65.0751L84.9533 64.8005L85.0958 65.7435L84.8598 65.9663L85.3808 67.7228L85.1804 66.1218L85.3585 65.8834L85.2205 64.6244L87.3713 63.1839V63.1839ZM93.6948 58.0757L88.7073 61.3192L88.3956 69.656L93.3385 66.2156L93.6948 58.0757V58.0757ZM92.3945 65.2622L92.3321 66.2518L89.4109 68.2622L89.4509 67.2622L92.3945 65.2622V65.2622ZM90.3282 60.9876L90.9739 62.5731L90.4885 62.8891L90.3416 66.4487L89.8785 66.7596L89.9675 63.2L89.4999 63.5264L90.3282 60.9876V60.9876ZM91.9492 59.9409L92.577 61.5005L92.0605 61.8373L91.9536 65.371L91.4593 65.6922L91.6152 62.1327L91.1298 62.4539L91.9492 59.9409V59.9409Z" fill="#322214"/>
<path d="M81.8188 31.5223L64.1894 50.5891C63.6906 51.1436 63.3611 51.9726 63.3744 52.4026C63.3655 52.4233 63.321 52.4389 63.3032 52.4026C63.3255 52.071 63.1429 51.843 63.0093 51.8068C63.0761 51.8171 63.1384 51.843 63.1562 51.7446C63.1651 51.6824 63.1785 51.6099 63.2008 51.5322C63.2186 51.4648 63.2453 51.3923 63.2765 51.3145C63.3833 51.0347 63.557 50.7135 63.7708 50.4648L81.5516 31.1182L81.8188 31.5223V31.5223Z" fill="#D7AA77"/>
<path d="M77.9311 54.6508C77.9311 54.7077 77.9534 54.7337 77.9845 54.7181L83.2793 51.5575C83.2882 51.5523 83.2927 51.5419 83.2971 51.5212L83.591 41.4233C83.5999 40.8689 83.8671 40.3197 84.2323 39.9414L101.816 21.5544L96.4637 24.2228L78.7901 42.8539C78.3359 43.372 78.18 43.9834 78.1711 44.5015L77.9307 54.6518L77.9311 54.6508Z" fill="url(#paint13_linear_512_21)"/>
<path d="M81.8184 31.5223L113.995 15.4814L113.799 15.1705L81.5557 31.113L81.8184 31.5223Z" fill="#F8CE93"/>
</g>
<defs>
<linearGradient id="paint0_linear_512_21" x1="78.2099" y1="87.7872" x2="78.4135" y2="88.0636" gradientUnits="userSpaceOnUse">
<stop/>
<stop offset="1" stop-opacity="0"/>
</linearGradient>
<linearGradient id="paint1_linear_512_21" x1="41.2177" y1="90.1921" x2="41.1898" y2="90.2568" gradientUnits="userSpaceOnUse">
<stop/>
<stop offset="1" stop-opacity="0"/>
</linearGradient>
<linearGradient id="paint2_linear_512_21" x1="48.6658" y1="32.5941" x2="51.5976" y2="33.6385" gradientUnits="userSpaceOnUse">
<stop stop-color="#C37A44"/>
<stop offset="0.4442" stop-color="#BB713D"/>
<stop offset="0.6406" stop-color="#A05728"/>
<stop offset="1" stop-color="#964E23"/>
</linearGradient>
<linearGradient id="paint3_linear_512_21" x1="34.9349" y1="20.451" x2="27.5363" y2="11.5257" gradientUnits="userSpaceOnUse">
<stop stop-color="#E9B880"/>
<stop offset="1" stop-color="#E4AF76"/>
</linearGradient>
<linearGradient id="paint4_linear_512_21" x1="39.9404" y1="27.981" x2="39.79" y2="27.6249" gradientUnits="userSpaceOnUse">
<stop stop-color="#C37A45" stop-opacity="0"/>
<stop offset="0.1334" stop-color="#C37A45"/>
<stop offset="0.2945" stop-color="#D08D55"/>
<stop offset="0.5021" stop-color="#DEA167"/>
<stop offset="0.6966" stop-color="#E8AF73"/>
<stop offset="0.8631" stop-color="#ECB477"/>
<stop offset="1" stop-color="#ECB477" stop-opacity="0"/>
</linearGradient>
<linearGradient id="paint5_linear_512_21" x1="67.1332" y1="31.2807" x2="59.9652" y2="45.4394" gradientUnits="userSpaceOnUse">
<stop offset="0.0881" stop-color="#AF6938"/>
<stop offset="0.4829" stop-color="#9A5227"/>
<stop offset="0.7792" stop-color="#8D4520"/>
</linearGradient>
<linearGradient id="paint6_linear_512_21" x1="75.5413" y1="18.6203" x2="79.5786" y2="12.3812" gradientUnits="userSpaceOnUse">
<stop offset="0.0327" stop-color="#E4AF76"/>
<stop offset="1" stop-color="#E9B880"/>
</linearGradient>
<linearGradient id="paint7_linear_512_21" x1="68.6625" y1="26.713" x2="68.7135" y2="26.5188" gradientUnits="userSpaceOnUse">
<stop stop-color="#AF6A38" stop-opacity="0"/>
<stop offset="0.086" stop-color="#AF6A38"/>
<stop offset="0.1977" stop-color="#B87542"/>
<stop offset="0.5828" stop-color="#D59C66"/>
<stop offset="0.7771" stop-color="#E4AF76"/>
<stop offset="0.9239" stop-color="#E4AF76" stop-opacity="0"/>
</linearGradient>
<linearGradient id="paint8_linear_512_21" x1="52.5134" y1="33.6349" x2="53.8046" y2="33.6349" gradientUnits="userSpaceOnUse">
<stop stop-color="#743F1A" stop-opacity="0"/>
<stop offset="0.4929" stop-color="#743F1A" stop-opacity="0.887"/>
<stop offset="0.5" stop-color="#743F1A" stop-opacity="0.9"/>
<stop offset="0.5297" stop-color="#743F1A" stop-opacity="0.847"/>
<stop offset="1" stop-color="#743F1A" stop-opacity="0"/>
</linearGradient>
<linearGradient id="paint9_linear_512_21" x1="41.0336" y1="89.9468" x2="41.0471" y2="89.9159" gradientUnits="userSpaceOnUse">
<stop stop-color="#322214"/>
<stop offset="0.2397" stop-color="#322314" stop-opacity="0.989"/>
<stop offset="1" stop-color="#322214" stop-opacity="0"/>
</linearGradient>
<linearGradient id="paint10_linear_512_21" x1="32.3605" y1="38.142" x2="31.8941" y2="39.4795" gradientUnits="userSpaceOnUse">
<stop offset="0.0476" stop-color="#C69866"/>
<stop offset="0.4156" stop-color="#BA8C5E"/>
<stop offset="0.8135" stop-color="#B5875B"/>
</linearGradient>
<linearGradient id="paint11_linear_512_21" x1="33.6705" y1="42.8232" x2="23.8481" y2="33.4474" gradientUnits="userSpaceOnUse">
<stop stop-color="#845F35"/>
<stop offset="0.4311" stop-color="#91673C"/>
<stop offset="0.4407" stop-color="#976A40"/>
<stop offset="0.8737" stop-color="#986B40"/>
<stop offset="1" stop-color="#AB8157"/>
</linearGradient>
<linearGradient id="paint12_linear_512_21" x1="78.5323" y1="87.6222" x2="78.5569" y2="87.6555" gradientUnits="userSpaceOnUse">
<stop stop-color="#322214" stop-opacity="0"/>
<stop offset="1" stop-color="#322214"/>
</linearGradient>
<linearGradient id="paint13_linear_512_21" x1="88.8359" y1="42.3253" x2="91.0017" y2="32.9118" gradientUnits="userSpaceOnUse">
<stop stop-color="#A9794B"/>
<stop offset="0.3857" stop-color="#AE7F53"/>
<stop offset="0.4557" stop-color="#AC7D50"/>
<stop offset="0.6236" stop-color="#A9794B"/>
<stop offset="1" stop-color="#B2875D"/>
</linearGradient>
<clipPath id="clip0_512_21">
<rect width="114" height="100" fill="white"/>
</clipPath>
</defs>
</svg>
