<svg width="256" height="135" viewBox="0 0 256 135" fill="none" xmlns="http://www.w3.org/2000/svg">
<g clip-path="url(#clip0_701_6)">
<path d="M128 134.6C198.692 134.6 256 104.469 256 67.3C256 30.1312 198.692 0 128 0C57.3075 0 0 30.1312 0 67.3C0 104.469 57.3075 134.6 128 134.6Z" fill="url(#paint0_radial_701_6)"/>
<path d="M128 129.6C195.931 129.6 251 101.707 251 67.3C251 32.8927 195.931 5 128 5C60.069 5 5 32.8927 5 67.3C5 101.707 60.069 129.6 128 129.6Z" fill="#6181B6"/>
<path d="M152.9 87.5L159 56.1C160.4 49 159.2 43.7 155.6 40.4C152.1 37.2 146.1 35.6 137.3 35.6H126.7L129.7 20C129.8 19.4 129.7 18.8 129.3 18.3C128.9 17.8 128.4 17.6 127.8 17.6H113.2C112.2 17.6 111.4 18.3 111.2 19.2L104.7 52.5C104.1 48.7 102.7 45.5 100.3 42.9C95.9999 38 89.2999 35.5 80.1999 35.5H52.0999C51.0999 35.5 50.2999 36.2 50.0999 37.1L36.9999 104.7C36.8999 105.3 36.9999 105.9 37.3999 106.4C37.7999 106.9 38.2999 107.1 38.8999 107.1H53.5999C54.5999 107.1 55.3999 106.4 55.5999 105.5L58.7999 89.2H69.6999C75.3999 89.2 80.2999 88.6 83.9999 87.4C87.8999 86.1 91.3999 84 94.4999 81.1C96.9999 78.8 99.0999 76.2 100.7 73.4L98.0999 86.9C97.9999 87.5 98.0999 88.1 98.4999 88.6C98.8999 89.1 99.3999 89.3 99.9999 89.3H114.6C115.6 89.3 116.4 88.6 116.6 87.7L123.8 50.7H133.8C138.1 50.7 139.3 51.5 139.7 51.9C140 52.2 140.6 53.4 139.9 57.1L134.1 87C134 87.6 134.1 88.2 134.5 88.7C134.9 89.2 135.4 89.4 136 89.4H151C151.9 89.1 152.7 88.4 152.9 87.5ZM85.2999 61.5C84.3999 66.2 82.6999 69.6 80.1999 71.5C77.6999 73.4 73.5999 74.4 68.1999 74.4H61.6999L66.3999 50.2H74.7999C80.9999 50.2 83.4999 51.5 84.4999 52.6C85.7999 54.2 86.0999 57.3 85.2999 61.5ZM215.3 42.9C211 38 204.3 35.5 195.2 35.5H166.9C165.9 35.5 165.1 36.2 164.9 37.1L151.8 104.6C151.7 105.2 151.8 105.8 152.2 106.3C152.6 106.8 153.1 107 153.7 107H168.4C169.4 107 170.2 106.3 170.4 105.4L173.6 89.1H184.5C190.2 89.1 195.1 88.5 198.8 87.3C202.7 86 206.2 83.9 209.3 81C211.9 78.6 214.1 75.9 215.7 73C217.3 70.1 218.5 66.9 219.2 63.4C220.9 54.7 219.6 47.9 215.3 42.9ZM200 61.5C199.1 66.2 197.4 69.6 194.9 71.5C192.4 73.4 188.3 74.4 182.9 74.4H176.4L181.1 50.2H189.5C195.7 50.2 198.2 51.5 199.2 52.6C200.6 54.2 200.9 57.3 200 61.5Z" fill="white"/>
<path d="M74.8 48.2C80.4 48.2 84.1 49.2 86 51.3C87.9 53.4 88.3 56.9 87.3 61.9C86.3 67.1 84.3 70.9 81.4 73.1C78.5 75.3 74.1 76.4 68.2 76.4H59.3L64.8 48.2H74.8ZM39 105H53.7L57.2 87.1H69.8C75.4 87.1 79.9 86.5 83.5 85.3C87.1 84.1 90.3 82.2 93.3 79.4C95.8 77.1 97.8 74.6 99.3 71.9C100.8 69.2 101.9 66.2 102.5 62.9C104.1 54.9 102.9 48.7 99 44.2C95.1 39.7 88.9 37.5 80.4 37.5H52.1L39 105ZM113.3 19.6H127.9L124.4 37.5H137.4C145.6 37.5 151.2 38.9 154.3 41.8C157.4 44.7 158.3 49.3 157.1 55.7L151 87.1H136.2L142 57.2C142.7 53.8 142.4 51.5 141.3 50.3C140.2 49.1 137.7 48.4 134 48.4H122.3L114.8 87.1H100.2L113.3 19.6ZM189.5 48.2C195.1 48.2 198.8 49.2 200.7 51.3C202.6 53.4 203 56.9 202 61.9C201 67.1 199 70.9 196.1 73.1C193.2 75.3 188.8 76.4 182.9 76.4H174L179.5 48.2H189.5ZM153.7 105H168.4L171.9 87.1H184.5C190.1 87.1 194.6 86.5 198.2 85.3C201.8 84.1 205 82.2 208 79.4C210.5 77.1 212.5 74.6 214 71.9C215.5 69.2 216.6 66.2 217.2 62.9C218.8 54.9 217.6 48.7 213.7 44.2C209.8 39.7 203.6 37.5 195.1 37.5H166.8L153.7 105Z" fill="#000004"/>
</g>
<defs>
<radialGradient id="paint0_radial_701_6" cx="0" cy="0" r="1" gradientUnits="userSpaceOnUse" gradientTransform="translate(76.8515 23.6675) scale(168.095 168.095)">
<stop stop-color="white"/>
<stop offset="0.5" stop-color="#4C6B97"/>
<stop offset="1" stop-color="#231F20"/>
</radialGradient>
<clipPath id="clip0_701_6">
<rect width="256" height="135" fill="white"/>
</clipPath>
</defs>
</svg>
