<svg width="100" height="101" viewBox="0 0 100 101" fill="none" xmlns="http://www.w3.org/2000/svg">
<g clip-path="url(#clip0_623_31)">
<path d="M82.2199 32.8791C81.1557 32.4691 80.0824 32.0893 79.0012 31.74C79.1828 30.9067 79.35 30.0834 79.4984 29.2747C81.9352 15.9935 80.3422 5.29397 74.9012 1.77116C69.6844 -1.60603 61.1527 1.91546 52.5363 10.3352C51.6871 11.1665 50.8568 12.0217 50.0461 12.9001C49.5034 12.316 48.9511 11.7433 48.3895 11.1821C39.359 2.17949 30.3074 -1.61481 24.8723 1.91809C19.6602 5.30581 18.1168 15.3641 20.3105 27.951C20.5288 29.1976 20.7752 30.4377 21.0496 31.6703C19.7684 32.0791 18.532 32.5141 17.3488 32.9773C6.76133 37.122 0 43.6172 0 50.3545C0 57.3128 7.25859 64.2922 18.2859 68.5242C19.1799 68.8659 20.0814 69.1825 20.9895 69.4738C20.6945 70.8013 20.4327 72.1378 20.2043 73.4817C18.1129 85.8501 19.7461 95.6707 24.9441 99.037C30.3129 102.513 39.3238 98.9405 48.0977 90.3286C48.8091 89.6285 49.5049 88.9085 50.1844 88.1694C51.0623 89.1205 51.9637 90.044 52.8875 90.9387C61.3867 99.1501 69.7805 102.466 74.9734 99.0905C80.3371 95.6041 82.0805 85.0541 79.8172 72.2185C79.6389 71.213 79.439 70.2124 79.2176 69.2177C79.8504 69.0071 80.4715 68.7905 81.077 68.565C92.541 64.3006 100 57.4058 100 50.3545C100 43.5927 93.0203 37.0536 82.2199 32.8791V32.8791ZM79.7336 64.0124C79.1867 64.2155 78.6258 64.4115 78.0539 64.6023C76.7883 60.1036 75.0805 55.3203 72.9902 50.3777C74.9848 45.5532 76.627 40.8308 77.857 36.3615C78.8801 36.694 79.8727 37.0444 80.8297 37.4141C90.0836 40.9913 95.7281 46.2795 95.7281 50.3545C95.7281 54.6948 89.632 60.3295 79.7336 64.0124V64.0124ZM75.6266 73.1501C76.6273 78.8256 76.7699 83.9571 76.107 87.969C75.5117 91.5738 74.3141 93.9769 72.8328 94.9396C69.6816 96.9878 62.9422 94.3256 55.6738 87.3027C54.8146 86.4709 53.9761 85.6124 53.1594 84.7282C55.9773 81.2681 58.7934 77.2457 61.5418 72.7782C66.3762 72.2966 70.9434 71.5089 75.0852 70.4339C75.2847 71.3344 75.4652 72.24 75.6266 73.1501V73.1501ZM34.0922 94.5856C31.0133 95.8063 28.5609 95.8413 27.0785 94.8817C23.9242 92.8392 22.6129 84.9536 24.4016 74.3764C24.6142 73.1265 24.8576 71.8835 25.1316 70.6488C29.2277 71.6663 33.7617 72.3979 38.6074 72.8391C41.3746 77.2106 44.2719 81.2286 47.1918 84.747C46.5713 85.4212 45.936 86.0781 45.2867 86.7172C41.4066 90.5251 37.5188 93.2269 34.0922 94.5856V94.5856ZM19.668 63.9856C14.7918 62.1141 10.7648 59.6821 8.00469 57.0282C5.52422 54.6435 4.27227 52.2755 4.27227 50.3545C4.27227 46.2659 9.70078 41.051 18.7551 37.5067C19.8539 37.0769 21.0039 36.6712 22.1973 36.2905C23.4488 40.8606 25.0902 45.6391 27.0711 50.4712C25.0645 55.3747 23.3996 60.2295 22.1359 64.8536C21.3071 64.587 20.4842 64.2976 19.668 63.9856V63.9856ZM24.5031 27.0295C22.6238 16.2457 23.8719 8.11107 27.0129 6.06941C30.3582 3.89484 37.7559 6.99528 45.5531 14.769C46.0616 15.277 46.5618 15.7954 47.0535 16.3238C44.148 19.8269 41.2773 23.815 38.5348 28.1606C33.8316 28.6501 29.3297 29.4361 25.1906 30.4891C24.9356 29.3427 24.7064 28.1893 24.5031 27.0299V27.0295ZM67.6387 38.9891C66.661 37.0931 65.6471 35.2208 64.5977 33.3738C67.7883 33.8269 70.8453 34.4282 73.716 35.1633C72.8543 38.265 71.7801 41.5076 70.5156 44.8321C69.5914 42.8632 68.6322 40.9151 67.6387 38.9891V38.9891ZM50.048 19.7519C52.0184 22.1488 53.9918 24.8247 55.9328 27.7282C51.9953 27.5194 48.0512 27.5185 44.1137 27.7255C46.0566 24.8488 48.0469 22.1764 50.048 19.7519ZM32.3445 39.022C31.3634 40.9325 30.4221 42.8684 29.5215 44.8282C28.2777 41.5155 27.2133 38.258 26.3441 35.1124C29.1973 34.3957 32.2398 33.8098 35.4102 33.365C34.349 35.2233 33.3268 37.1094 32.3445 39.0216V39.022ZM35.5012 67.6852C32.2258 67.2747 29.1375 66.719 26.2852 66.0216C27.168 62.8199 28.2559 59.4931 29.5266 56.1093C30.4308 58.0706 31.376 60.0076 32.3613 61.919C33.3746 63.8839 34.4238 65.8084 35.5012 67.6852ZM50.166 81.2949C48.141 78.8422 46.1215 76.1286 44.1492 73.2102C46.0641 73.2944 48.016 73.3374 50 73.3374C52.0383 73.3374 54.0531 73.2861 56.0363 73.187C54.0891 76.158 52.123 78.8756 50.166 81.2949ZM70.5559 55.9365C71.8926 59.3576 73.0191 62.6668 73.9137 65.8137C71.0145 66.5567 67.884 67.1549 64.5855 67.5992C65.6425 65.7179 66.666 63.8131 67.6555 61.8861C68.6615 59.9273 69.6285 57.9436 70.5559 55.9365V55.9365ZM63.9551 59.4896C62.4403 62.4441 60.8404 65.3426 59.1578 68.1804C56.11 68.4227 53.0555 68.5431 50 68.5413C46.8879 68.5413 43.8609 68.4326 40.9461 68.2203C39.2196 65.3891 37.5892 62.4855 36.0582 59.5159H36.0586C34.5348 56.562 33.1116 53.5442 31.7918 50.469C33.1082 47.393 34.5272 44.3738 36.0457 41.4177L36.0453 41.4181C37.5633 38.4612 39.1807 35.5701 40.8941 32.751C43.868 32.4984 46.9176 32.3668 49.9996 32.3668H50C53.0961 32.3668 56.1496 32.4997 59.1227 32.7541C60.8188 35.5689 62.4259 38.4501 63.941 41.3922C65.4646 44.3419 66.9024 47.3464 68.252 50.401C66.9162 53.4868 65.483 56.5183 63.9551 59.4896V59.4896ZM72.7676 5.92642C76.116 8.09484 77.4184 16.8391 75.3145 28.3062C75.1801 29.0378 75.0293 29.783 74.8652 30.5387C70.716 29.4633 66.2109 28.6637 61.4941 28.1668C58.7465 23.7734 55.8992 19.7791 53.041 16.3212C53.7901 15.5104 54.557 14.7207 55.341 13.9527C62.7238 6.73914 69.6238 3.8909 72.7676 5.92642V5.92642ZM50 40.3282C54.9316 40.3282 58.9297 44.8172 58.9297 50.3545C58.9297 55.8918 54.9316 60.3808 50 60.3808C45.0684 60.3808 41.0703 55.8918 41.0703 50.3545C41.0703 44.8172 45.0684 40.3282 50 40.3282V40.3282Z" fill="#00D8FF"/>
</g>
<defs>
<clipPath id="clip0_623_31">
<rect width="100" height="100" fill="white" transform="translate(0 0.5)"/>
</clipPath>
</defs>
</svg>
