<svg width="134" height="100" viewBox="0 0 134 100" fill="none" xmlns="http://www.w3.org/2000/svg">
<g clip-path="url(#clip0_512_14)">
<path d="M114.73 57.5594C110.091 57.5833 106.059 58.7005 102.684 60.3521C101.445 57.899 100.206 55.7135 99.9881 54.1104C99.7448 52.2406 99.4537 51.099 99.7448 48.8646C100.037 46.6302 101.348 43.4484 101.323 43.2057C101.3 42.963 101.032 41.8214 98.3605 41.7974C95.6891 41.7729 93.3818 42.3073 93.1146 43.0115C92.8474 43.7156 92.3375 45.3188 91.9974 46.9698C91.536 49.399 86.6547 58.0688 83.862 62.6104C82.9631 60.838 82.186 59.2833 82.0157 58.0448C81.773 56.175 81.4813 55.0333 81.773 52.799C82.0646 50.5646 83.3761 47.3833 83.3516 47.1401C83.3271 46.8974 83.0599 45.7557 80.3886 45.7318C77.7167 45.7073 75.4094 46.2417 75.1428 46.9458C74.8756 47.6505 74.5839 49.3016 74.0256 50.9047C73.4667 52.5078 66.9823 66.9828 65.2823 70.7224C64.5953 72.236 63.8747 73.7341 63.1209 75.2156C63.1209 75.2156 63.0964 75.2885 63.0235 75.4099C62.7867 75.8744 62.5439 76.3359 62.2954 76.7943V76.8182C61.9308 77.4745 61.5422 78.0813 61.348 78.0813C61.2021 78.0813 60.9349 76.3328 61.3964 73.9526C62.3678 68.9255 64.6751 61.1052 64.6511 60.838C64.6511 60.6922 65.0881 59.3323 63.1454 58.6276C61.2506 57.9234 60.5709 59.0891 60.4006 59.0891C60.2308 59.0891 60.1089 59.5021 60.1089 59.5021C60.1089 59.5021 62.2224 50.7104 56.0777 50.7104C52.2407 50.7104 46.9459 54.912 44.323 58.7005C41.3413 60.3231 38.3621 61.9504 35.3855 63.5823C33.9532 64.3839 32.4714 65.1854 31.087 65.938C30.9896 65.8412 30.8928 65.7193 30.7954 65.6224C23.3636 57.6807 9.61776 52.0703 10.2006 41.4089C10.4193 37.5229 11.7547 27.3224 36.6001 14.9365C57.049 4.85729 73.3214 7.65 76.1386 13.8432C80.1698 22.6839 67.4198 39.1016 46.2902 41.4813C38.2271 42.3802 34.0011 39.2714 32.9329 38.1057C31.8157 36.8912 31.6454 36.8182 31.2323 37.0615C30.5527 37.426 30.9896 38.5188 31.2323 39.15C31.8641 40.801 34.4626 43.7156 38.8584 45.149C42.7443 46.4115 52.1917 47.1162 63.6308 42.6958C76.4297 37.7412 86.436 23.9708 83.4974 12.4349C80.5584 0.728648 61.1292 -3.13281 42.7443 3.4C31.8157 7.28646 19.9636 13.4063 11.4391 21.3724C1.31151 30.8438 -0.291612 39.0771 0.364117 42.526C2.72037 54.7662 19.5995 62.7323 26.3511 68.6339C26.011 68.8281 25.6948 68.9984 25.4282 69.1443C22.0521 70.8198 9.18026 77.5469 5.97453 84.663C2.33182 92.726 6.55787 98.5068 9.35057 99.2833C18.0209 101.688 26.9339 97.3651 31.7183 90.2245C36.5027 83.0844 35.9198 73.8068 33.7099 69.5568C33.6855 69.5083 33.6615 69.4594 33.6126 69.4109C34.487 68.901 35.3855 68.3667 36.26 67.8568C37.8672 66.9067 39.4948 65.9915 41.1417 65.112C40.3157 67.3708 39.7084 70.0667 39.4172 73.9526C39.0527 78.5188 40.9224 84.4443 43.3756 86.7755C44.4688 87.7964 45.7558 87.8203 46.5818 87.8203C49.4474 87.8203 50.735 85.4401 52.1678 82.6229C53.9162 79.1745 55.4948 75.1672 55.4948 75.1672C55.4948 75.1672 53.5277 85.999 58.8709 85.999C60.8136 85.999 62.7808 83.4729 63.6553 82.1859V82.2099C63.6553 82.2099 63.7037 82.137 63.8011 81.9672C63.9954 81.6516 64.1167 81.4568 64.1167 81.4568V81.4089C64.8938 80.0484 66.6428 76.9641 69.2412 71.8396C72.5928 65.2339 75.823 56.9766 75.823 56.9766C75.823 56.9766 76.1146 58.9922 77.1099 62.3438C77.6933 64.3109 78.9068 66.4724 79.8787 68.5609C79.1016 69.6542 78.6157 70.2609 78.6157 70.2609L78.6402 70.2854C78.0084 71.1109 77.3287 72.0094 76.5756 72.8844C73.9282 76.0412 70.7714 79.6604 70.3339 80.7042C69.8235 81.9427 69.9454 82.8417 70.9172 83.5703C71.6214 84.1047 72.8839 84.1771 74.1714 84.1047C76.5516 83.9344 78.2271 83.3516 79.0527 82.9875C80.3402 82.526 81.8459 81.8214 83.2542 80.7771C85.8532 78.8583 87.4313 76.1141 87.286 72.4958C87.2131 70.5042 86.5573 68.5125 85.7558 66.6422C85.999 66.3026 86.2172 65.9625 86.4605 65.6224C90.5646 59.6234 93.7464 53.0417 93.7464 53.0417C93.7464 53.0417 94.0381 55.0573 95.0334 58.4094C95.5193 60.1094 96.5152 61.9552 97.3891 63.7521C93.5277 66.8854 91.1474 70.5281 90.2974 72.9083C88.7678 77.3286 89.9573 79.3198 92.2162 79.7813C93.236 80 94.6933 79.5141 95.762 79.0526C97.1219 78.6156 98.7251 77.863 100.255 76.7453C102.854 74.8271 105.355 72.1552 105.209 68.537C105.137 66.8854 104.7 65.2578 104.092 63.6792C107.371 62.3198 111.597 61.5667 116.988 62.1979C128.549 63.5578 130.832 70.7708 130.394 73.8073C129.957 76.8427 127.529 78.4943 126.728 79.0042C125.926 79.5146 125.659 79.6844 125.732 80.0484C125.829 80.5828 126.217 80.5589 126.897 80.4615C127.845 80.2917 132.969 78.0083 133.188 72.4224C133.552 65.2823 126.752 57.4865 114.73 57.5594V57.5594ZM25.5495 87.6261C21.712 91.8031 16.3693 93.3818 14.062 92.0464C11.5849 90.613 12.5563 84.4443 17.2678 80.0245C20.1334 77.3287 23.8251 74.8266 26.2782 73.2969C26.8365 72.9568 27.6626 72.4714 28.6584 71.8641C28.8282 71.7667 28.9256 71.7182 28.9256 71.7182L29.5084 71.3536C31.2323 77.6682 29.5813 83.2302 25.5495 87.6261V87.6261ZM53.4792 68.6339C52.1433 71.8885 49.3506 80.2188 47.6506 79.7573C46.1933 79.3688 45.2943 73.0542 47.3589 66.8125C48.4032 63.6792 50.6131 59.9391 51.9006 58.4823C53.9891 56.1505 56.2964 55.3729 56.8547 56.3208C57.5594 57.5594 54.3047 66.5938 53.4792 68.6339V68.6339ZM76.5271 79.6599C75.9683 79.9516 75.4344 80.1458 75.1912 80C75.0214 79.9026 75.4344 79.5141 75.4344 79.5141C75.4344 79.5141 78.3245 76.4057 79.4657 74.9969C80.1219 74.1714 80.8985 73.2 81.7245 72.1068V72.4224C81.7245 76.1385 78.1297 78.6401 76.5266 79.6599H76.5271ZM94.3047 75.6042C93.8917 75.3125 93.9646 74.3412 95.349 71.3052C95.8834 70.1151 97.1459 68.124 99.3079 66.2052C99.5506 66.9823 99.7209 67.7354 99.6964 68.4396C99.6719 73.1271 96.3209 74.8755 94.3047 75.6042Z" fill="#CD6799"/>
</g>
<defs>
<clipPath id="clip0_512_14">
<rect width="133.333" height="100" fill="white"/>
</clipPath>
</defs>
</svg>
