<svg aria-hidden="true" style="position: absolute; width: 0; height: 0; overflow: hidden;" version="1.1" xmlns="http://www.w3.org/2000/svg" xmlns:xlink="http://www.w3.org/1999/xlink">
<defs>
<symbol id="icon-chevron-thin-down" viewBox="0 0 20 20">
<path d="M17.418 6.109c0.272-0.268 0.709-0.268 0.979 0s0.271 0.701 0 0.969l-7.908 7.83c-0.27 0.268-0.707 0.268-0.979 0l-7.908-7.83c-0.27-0.268-0.27-0.701 0-0.969s0.709-0.268 0.979 0l7.419 7.141 7.418-7.141z"></path>
</symbol>
<symbol id="icon-envelope" viewBox="0 0 20 20">
<path d="M18 2c1.105 0 2 0.895 2 2v0 12c0 1.105-0.895 2-2 2v0h-16c-1.105 0-2-0.895-2-2v0-12c0-1.1 0.9-2 2-2h16zM13.63 11.1l6.37 4.9v-2l-5.12-3.9 5.12-4.1v-2l-10 8-10-8v2l5.12 4.1-5.12 3.9v2l6.37-4.9 3.63 2.9 3.63-2.9z"></path>
</symbol>
<symbol id="icon-github" viewBox="0 0 20 20">
<path d="M10 0.247c-5.522 0-10 4.477-10 10 0 4.418 2.865 8.167 6.839 9.489 0.5 0.093 0.683-0.217 0.683-0.481 0-0.238-0.009-1.026-0.014-1.862-2.782 0.605-3.369-1.18-3.369-1.18-0.455-1.156-1.11-1.463-1.11-1.463-0.907-0.621 0.069-0.608 0.069-0.608 1.004 0.071 1.533 1.031 1.533 1.031 0.892 1.529 2.339 1.087 2.91 0.831 0.090-0.646 0.349-1.087 0.635-1.337-2.221-0.253-4.556-1.11-4.556-4.942 0-1.092 0.391-1.984 1.030-2.684-0.104-0.252-0.446-1.269 0.097-2.646 0 0 0.84-0.269 2.751 1.025 0.798-0.222 1.653-0.333 2.503-0.337 0.85 0.004 1.706 0.115 2.505 0.337 1.909-1.294 2.747-1.025 2.747-1.025 0.544 1.378 0.202 2.395 0.098 2.646 0.641 0.7 1.029 1.592 1.029 2.684 0 3.841-2.339 4.687-4.566 4.934 0.359 0.31 0.678 0.919 0.678 1.852 0 1.338-0.012 2.415-0.012 2.744 0 0.266 0.18 0.578 0.687 0.48 3.971-1.324 6.833-5.071 6.833-9.488 0-5.523-4.477-10-10-10z"></path>
</symbol>
<symbol id="icon-linkedin" viewBox="0 0 20 20">
<path d="M18.125 0h-16.25c-1.031 0-1.875 0.844-1.875 1.875v16.25c0 1.031 0.844 1.875 1.875 1.875h16.25c1.031 0 1.875-0.844 1.875-1.875v-16.25c0-1.031-0.844-1.875-1.875-1.875zM7.5 16.25h-2.5v-8.75h2.5v8.75zM6.25 6.25c-0.691 0-1.25-0.559-1.25-1.25s0.559-1.25 1.25-1.25c0.691 0 1.25 0.559 1.25 1.25s-0.559 1.25-1.25 1.25zM16.25 16.25h-2.5v-5c0-0.691-0.559-1.25-1.25-1.25s-1.25 0.559-1.25 1.25v5h-2.5v-8.75h2.5v1.551c0.516-0.707 1.305-1.551 2.188-1.551 1.555 0 2.813 1.398 2.813 3.125v5.625z"></path>
</symbol>
</defs>
</svg>
