<svg width="32" height="32" viewBox="0 0 32 32" fill="none" xmlns="http://www.w3.org/2000/svg">
<path d="M29.884 6.14599L16.742 29.646C16.6803 29.7565 16.5903 29.8486 16.4813 29.9129C16.3722 29.9772 16.2481 30.0114 16.1215 30.0119C15.9949 30.0124 15.8704 29.9793 15.7609 29.9158C15.6513 29.8524 15.5606 29.761 15.498 29.651L2.09601 6.14799C2.02863 6.03006 1.99628 5.89536 2.00277 5.7597C2.00925 5.62403 2.05429 5.49303 2.13261 5.38206C2.21092 5.2711 2.31927 5.18477 2.44492 5.13322C2.57057 5.08166 2.70833 5.06701 2.84201 5.09099L15.998 7.44299C16.0817 7.45805 16.1674 7.45805 16.251 7.44299L29.132 5.09499C29.2652 5.07066 29.4025 5.08468 29.528 5.13543C29.6535 5.18618 29.762 5.27157 29.8408 5.38162C29.9197 5.49168 29.9656 5.62188 29.9732 5.75704C29.9809 5.8922 29.9499 6.02774 29.884 6.14599Z" fill="url(#paint0_linear_701_47)"/>
<path d="M22.264 2.00698L12.54 3.91198C12.4621 3.92718 12.3915 3.96787 12.3394 4.02763C12.2872 4.08738 12.2565 4.1628 12.252 4.24198L11.654 14.346C11.6507 14.4014 11.6603 14.4568 11.6822 14.5079C11.7041 14.5589 11.7376 14.6041 11.78 14.64C11.8224 14.6758 11.8726 14.7012 11.9266 14.7143C11.9806 14.7273 12.0369 14.7275 12.091 14.715L14.798 14.09C14.8563 14.0765 14.917 14.0779 14.9747 14.0941C15.0323 14.1102 15.085 14.1406 15.1278 14.1824C15.1706 14.2243 15.2022 14.2762 15.2197 14.3334C15.2372 14.3906 15.2401 14.4514 15.228 14.51L14.424 18.449C14.4115 18.5096 14.4151 18.5724 14.4343 18.6313C14.4535 18.6901 14.4877 18.743 14.5335 18.7846C14.5793 18.8263 14.6351 18.8553 14.6955 18.8689C14.7559 18.8824 14.8188 18.8801 14.878 18.862L16.55 18.354C16.6092 18.3358 16.6722 18.3334 16.7327 18.3471C16.7932 18.3607 16.8491 18.3898 16.895 18.4316C16.9408 18.4733 16.9749 18.5263 16.994 18.5853C17.0132 18.6443 17.0166 18.7073 17.004 18.768L15.725 24.955C15.645 25.342 16.16 25.553 16.375 25.222L16.518 25L24.443 9.18498C24.4727 9.12539 24.4852 9.05867 24.479 8.99236C24.4728 8.92604 24.4482 8.86278 24.4079 8.80972C24.3677 8.75667 24.3134 8.71593 24.2512 8.69212C24.189 8.66831 24.1213 8.66237 24.056 8.67498L21.269 9.21198C21.209 9.22346 21.147 9.21936 21.0891 9.20007C21.0311 9.18077 20.9791 9.14693 20.938 9.10178C20.8968 9.05663 20.868 9.00168 20.8541 8.94219C20.8403 8.8827 20.842 8.82065 20.859 8.76198L22.677 2.45598C22.6941 2.39713 22.6958 2.33485 22.6819 2.27515C22.6679 2.21545 22.6389 2.16034 22.5975 2.11513C22.5561 2.06992 22.5038 2.03613 22.4455 2.01701C22.3873 1.99789 22.3251 1.9941 22.265 2.00598L22.264 2.00698Z" fill="url(#paint1_linear_701_47)"/>
<defs>
<linearGradient id="paint0_linear_701_47" x1="1.76853" y1="4.25085" x2="18.1237" y2="26.4625" gradientUnits="userSpaceOnUse">
<stop stop-color="#41D1FF"/>
<stop offset="1" stop-color="#BD34FE"/>
</linearGradient>
<linearGradient id="paint1_linear_701_47" x1="15.2419" y1="2.52376" x2="18.2005" y2="22.8193" gradientUnits="userSpaceOnUse">
<stop stop-color="#FFEA83"/>
<stop offset="0.083" stop-color="#FFDD35"/>
<stop offset="1" stop-color="#FFA800"/>
</linearGradient>
</defs>
</svg>
